<svg width="208" height="48" viewBox="0 0 208 48" fill="none" xmlns="http://www.w3.org/2000/svg">
<g clip-path="url(#clip0_12_22)">
<g clip-path="url(#clip1_12_22)">
<rect width="13.8141" height="18.5193" transform="matrix(0.627213 0.778848 0.752834 -0.65821 7.03131 18.1874)" fill="#7D59E6" fill-opacity="0.7"/>
<rect width="8.3082" height="16.1786" transform="matrix(-0.752834 0.65821 0.627212 0.778848 29.6374 16.7572)" fill="#7D59E6"/>
<path d="M39.7852 29.3566L27.6614 39.9566L30.8737 43.9455L41.4919 34.662C42.3234 33.9349 42.4359 32.6481 41.7431 31.7878L39.7852 29.3566Z" fill="#6138DB"/>
</g>
<g clip-path="url(#clip2_12_22)">
<rect width="13.8141" height="18.5175" transform="matrix(-0.627212 0.778849 -0.752834 -0.658211 39.7343 18.1873)" fill="#1A6B9F"/>
<rect width="8.30819" height="16.1786" transform="matrix(0.752834 0.658211 -0.627212 0.778849 17.1284 16.7572)" fill="#085385"/>
<path d="M6.98044 29.3566L19.1043 39.9566L15.892 43.9455L5.27381 34.662C4.44225 33.9349 4.32977 32.6481 5.02257 31.7878L6.98044 29.3566Z" fill="#05446D"/>
</g>
</g>
<path d="M78.1479 38.56C83.3079 38.56 87.8279 35.96 90.1879 31.96L85.4279 29.2C84.1079 31.64 81.3479 33.16 78.1479 33.16C72.6679 33.16 69.0679 29.36 69.0679 24C69.0679 18.6 72.6679 14.8 78.1479 14.8C81.3479 14.8 84.0679 16.32 85.4279 18.8L90.1879 16.04C87.7879 12.04 83.2679 9.44 78.1479 9.44C69.6679 9.44 63.5879 15.8 63.5879 24C63.5879 32.16 69.6679 38.56 78.1479 38.56ZM93.6513 38H98.8113V8.8H93.6513V38ZM118.734 18V20.36C117.294 18.56 115.134 17.44 112.214 17.44C106.894 17.44 102.494 22.04 102.494 28C102.494 33.96 106.894 38.56 112.214 38.56C115.134 38.56 117.294 37.44 118.734 35.64V38H123.894V18H118.734ZM113.174 33.64C110.014 33.64 107.654 31.36 107.654 28C107.654 24.64 110.014 22.36 113.174 22.36C116.374 22.36 118.734 24.64 118.734 28C118.734 31.36 116.374 33.64 113.174 33.64ZM133.177 23.68C133.177 22.6 134.217 22.04 135.497 22.04C136.977 22.04 138.097 22.8 138.697 24.08L143.097 21.68C141.537 18.92 138.737 17.44 135.497 17.44C131.377 17.44 127.897 19.72 127.897 23.8C127.897 30.84 138.217 29.24 138.217 32.16C138.217 33.32 137.097 33.88 135.457 33.88C133.457 33.88 132.097 32.92 131.537 31.28L127.057 33.8C128.497 36.88 131.457 38.56 135.457 38.56C139.737 38.56 143.497 36.48 143.497 32.16C143.497 24.8 133.177 26.64 133.177 23.68ZM150.521 23.68C150.521 22.6 151.561 22.04 152.841 22.04C154.321 22.04 155.441 22.8 156.041 24.08L160.441 21.68C158.881 18.92 156.081 17.44 152.841 17.44C148.721 17.44 145.241 19.72 145.241 23.8C145.241 30.84 155.561 29.24 155.561 32.16C155.561 33.32 154.441 33.88 152.801 33.88C150.801 33.88 149.441 32.92 148.881 31.28L144.401 33.8C145.841 36.88 148.801 38.56 152.801 38.56C157.081 38.56 160.841 36.48 160.841 32.16C160.841 24.8 150.521 26.64 150.521 23.68ZM166.719 15.6C168.479 15.6 169.919 14.16 169.919 12.44C169.919 10.72 168.479 9.24 166.719 9.24C164.999 9.24 163.559 10.72 163.559 12.44C163.559 14.16 164.999 15.6 166.719 15.6ZM164.159 38H169.319V18H164.159V38ZM184.802 14.4V9.44C178.442 9.04 175.402 12.28 175.402 17.8V18H172.522V22.96H175.402V38H180.562V22.96H184.802V18H180.562V17.8C180.562 15.08 182.122 14.2 184.802 14.4ZM200.988 18L196.548 31.44L191.348 18H185.708L193.908 37.36C192.948 40.04 191.508 41.24 188.668 41.2V46C193.748 46.28 197.148 43.76 199.228 38L206.508 18H200.988Z" fill="#7D59E6"/>
<defs>
<clipPath id="clip0_12_22">
<rect width="45.5357" height="30" fill="white" transform="matrix(-1 0 0 1 46.2679 9)"/>
</clipPath>
<clipPath id="clip1_12_22">
<rect width="22.885" height="34.2857" fill="white" transform="matrix(1 0 0 -1 23.3828 39)"/>
</clipPath>
<clipPath id="clip2_12_22">
<rect width="22.885" height="34.2857" fill="white" transform="translate(23.3829 39) rotate(-180)"/>
</clipPath>
</defs>
</svg>
